<?xml version="1.0" encoding="UTF-8" standalone="no"?>
<!-- Created with Inkscape (http://www.inkscape.org/) -->

<svg
   width="210mm"
   height="297mm"
   viewBox="0 0 210 297"
   version="1.1"
   id="svg5"
   xml:space="preserve"
   inkscape:version="1.2 (dc2aedaf03, 2022-05-15)"
   sodipodi:docname="logo.svg"
   xmlns:inkscape="http://www.inkscape.org/namespaces/inkscape"
   xmlns:sodipodi="http://sodipodi.sourceforge.net/DTD/sodipodi-0.dtd"
   xmlns="http://www.w3.org/2000/svg"
   xmlns:svg="http://www.w3.org/2000/svg"><sodipodi:namedview
     id="namedview7"
     pagecolor="#ffffff"
     bordercolor="#999999"
     borderopacity="1"
     inkscape:showpageshadow="0"
     inkscape:pageopacity="0"
     inkscape:pagecheckerboard="0"
     inkscape:deskcolor="#d1d1d1"
     inkscape:document-units="mm"
     showgrid="false"
     inkscape:zoom="0.74564394"
     inkscape:cx="311.81102"
     inkscape:cy="561.9304"
     inkscape:window-width="1920"
     inkscape:window-height="1017"
     inkscape:window-x="-8"
     inkscape:window-y="-8"
     inkscape:window-maximized="1"
     inkscape:current-layer="g2315" /><defs
     id="defs2"><rect
       x="315.16383"
       y="537.7902"
       width="230.6731"
       height="214.57963"
       id="rect6107" /></defs><g
     inkscape:label="Calque 1"
     inkscape:groupmode="layer"
     id="layer1"><g
       id="g2315"
       transform="translate(-16.322577,4.9677417)"><path
         style="fill:#2a9d8f;fill-opacity:1;stroke-width:0.264583"
         d="m 74.040726,219.99388 c -0.94589,-0.20522 -2.58278,-0.79855 -3.63754,-1.31852 -1.2605,-0.62139 -2.486,-1.51365 -3.57586,-2.60351 -0.91196,-0.91196 -2.03192,-2.36408 -2.48879,-3.22693 -0.45687,-0.86285 -1.05039,-2.22366 -1.31893,-3.02402 -0.46756,-1.39353 -0.49124,-3.8188 -0.55862,-57.21286 -0.0615,-48.75375 -0.0205,-55.999009 0.32705,-57.679163 0.21857,-1.056836 0.83265,-2.8057 1.36462,-3.886365 0.66408,-1.349028 1.51521,-2.510546 2.71566,-3.705973 1.11069,-1.106041 2.38086,-2.050807 3.48224,-2.590123 0.95358,-0.466947 2.50139,-1.029922 3.43958,-1.251053 1.27715,-0.301027 3.31809,-0.403043 8.12194,-0.405972 l 6.416149,-0.0039 v 3.172161 c 0,2.490367 0.109471,3.460266 0.509325,4.512601 0.28013,0.73724 0.924994,1.847705 1.433029,2.467695 0.518937,0.633293 1.658051,1.521626 2.599528,2.027232 1.503389,0.807373 1.893626,0.900351 3.792493,0.903613 1.654762,0.0028 2.417699,-0.131403 3.49614,-0.615167 0.78511,-0.352182 1.90467,-1.180272 2.59839,-1.921931 0.67041,-0.716722 1.4715,-1.864775 1.78018,-2.551229 0.44921,-0.998937 0.58377,-1.921552 0.67404,-4.621538 l 0.11277,-3.373437 h 26.66035 26.66034 l 0.11278,3.373437 c 0.0923,2.759549 0.22056,3.614177 0.70507,4.696355 0.32577,0.727604 1.14136,1.881899 1.81243,2.565101 0.67107,0.683201 1.82638,1.51294 2.56736,1.843865 1.00978,0.450977 1.85093,0.603737 3.35828,0.609899 1.7849,0.0073 2.2152,-0.09592 3.8265,-0.917824 1.32217,-0.674425 2.08698,-1.285494 2.8148,-2.248958 0.54965,-0.727604 1.17921,-1.850141 1.39902,-2.494529 0.26789,-0.78531 0.39967,-2.202929 0.39967,-4.299479 v -3.127867 l 5.62239,0.0039 c 4.09341,0.0029 6.08629,0.113249 7.3282,0.405971 0.93819,0.221131 2.486,0.784106 3.43958,1.251053 1.10138,0.539316 2.37154,1.484083 3.48223,2.590123 1.20045,1.195427 2.05159,2.356945 2.71566,3.705974 0.53197,1.080664 1.14605,2.829528 1.36463,3.886364 0.34749,1.680154 0.38857,8.925414 0.32705,57.679164 -0.0674,53.39406 -0.0911,55.81933 -0.55862,57.21285 -0.26855,0.80037 -0.85819,2.1539 -1.31032,3.00786 -0.45213,0.85396 -1.49882,2.24 -2.32597,3.0801 -0.82715,0.84009 -2.06874,1.85845 -2.75909,2.26302 -0.69035,0.40457 -2.04332,1.04259 -3.00661,1.41782 l -1.75142,0.68224 -56.22396,0.0475 c -47.525984,0.0402 -56.490004,-0.0102 -57.943744,-0.32559 z m 112.712494,-6.54223 c 0.65484,-0.25866 1.80712,-0.89232 2.56061,-1.40814 0.75349,-0.51582 1.79201,-1.55435 2.30783,-2.30784 0.51583,-0.75349 1.14949,-1.90576 1.40815,-2.56061 0.44313,-1.12187 0.47444,-3.79186 0.54231,-46.23594 l 0.072,-45.04531 H 131.1966 68.749056 l 0.002,43.98698 c 10e-4,27.28509 0.0994,44.58462 0.25928,45.56095 0.14176,0.86568 0.56593,2.20387 0.9426,2.97376 0.37667,0.76989 1.21375,1.9287 1.86019,2.57513 0.64643,0.64643 1.80454,1.48318 2.57358,1.85943 0.76904,0.37626 1.92864,0.78893 2.57689,0.91705 0.65957,0.13035 24.832514,0.21574 54.889044,0.19388 50.79289,-0.0369 53.77509,-0.0646 54.90104,-0.50934 z M 94.131643,92.412043 c -1.077113,-0.546057 -1.63359,-1.052247 -2.230255,-2.028719 l -0.795038,-1.301115 -0.08086,-5.49515 c -0.05119,-3.478717 0.02774,-5.898449 0.215093,-6.594219 0.167913,-0.623577 0.762503,-1.60522 1.374354,-2.269 0.804604,-0.872892 1.44421,-1.276273 2.519196,-1.58878 0.905285,-0.263174 1.796698,-0.352082 2.398363,-0.239208 0.526664,0.0988 1.379826,0.396238 1.89592,0.660969 0.516091,0.264731 1.200554,0.762431 1.521034,1.106001 0.32048,0.34357 0.76696,1.065707 0.99219,1.604751 0.32763,0.784162 0.40949,2.147462 0.40949,6.81995 0,5.227149 -0.053,5.942868 -0.50492,6.82152 -0.27772,0.539906 -0.84327,1.302753 -1.25678,1.695214 -0.41351,0.392465 -1.194494,0.89848 -1.735522,1.124479 -0.541031,0.226002 -1.501945,0.410912 -2.13537,0.410912 -0.732055,0 -1.674612,-0.265108 -2.586898,-0.727605 z m 71.193037,0.379545 c -0.50782,-0.161721 -1.42163,-0.79235 -2.03068,-1.4014 -0.63373,-0.633732 -1.22838,-1.54319 -1.3903,-2.126345 -0.15855,-0.570992 -0.2836,-3.419414 -0.28442,-6.478879 l -0.001,-5.45989 0.73931,-1.415191 c 0.53268,-1.019678 1.09134,-1.632838 1.99892,-2.193957 1.02374,-0.632926 1.56658,-0.782337 2.89872,-0.797835 1.34072,-0.0156 1.86895,0.116045 2.90179,0.723161 0.69448,0.408226 1.58745,1.232569 1.98437,1.831874 l 0.72168,1.089646 0.0806,5.963377 c 0.0674,4.986753 0.0108,6.146409 -0.34618,7.080991 -0.23475,0.614688 -0.88769,1.53398 -1.45097,2.042872 -0.56328,0.508889 -1.47906,1.051576 -2.03506,1.205971 -0.55601,0.154392 -1.42764,0.269224 -1.93696,0.25518 -0.50932,-0.01405 -1.34154,-0.157853 -1.84937,-0.319575 z"
         id="path2323"
         sodipodi:nodetypes="cssssscssssscsssscssssccccssssssssccssssssssssscccccssssccccssssssccsscssssssssssssssscssccssssscscssscc"
         inkscape:export-filename="logo.png"
         inkscape:export-xdpi="300"
         inkscape:export-ydpi="300" /><path
         style="fill:#35a194;stroke-width:1.14313"
         d="m 106.14415,201.56178 c -0.30417,-0.79238 -0.4165,-17.12489 -0.24973,-36.29443 l 0.30287,-34.8537 15.76082,-0.31842 c 8.66849,-0.17498 17.74382,0.2156 20.16745,0.8682 2.69252,0.72502 5.9701,2.91728 8.42634,5.636 2.80863,3.10886 4.40627,6.31113 5.30251,10.62826 0.95539,4.60196 0.94749,7.76669 -0.0303,12.40085 -1.05735,5.00836 -2.31466,7.18896 -6.44539,11.17894 l -5.1318,4.95687 6.5357,12.57896 c 4.18211,8.04917 6.13994,12.97475 5.43669,13.678 -0.60444,0.60443 -4.34871,0.94384 -8.32058,0.75423 l -7.22168,-0.34478 -6.37981,-12.57441 c -5.55534,-10.9494 -6.74919,-12.57447 -9.23771,-12.57447 -2.81549,0 -2.86202,0.15251 -3.14337,10.28819 -0.15684,5.6585 -0.55264,11.4456 -0.87913,12.86021 -0.53453,2.3163 -1.27697,2.57204 -7.46643,2.57204 -4.47388,0 -7.06587,-0.50287 -7.42577,-1.44072 z m 30.76346,-39.79498 c 2.58391,-2.03253 3.01199,-3.23916 3.01199,-8.49051 0,-5.2847 -0.42083,-6.45223 -3.07822,-8.54261 -2.39728,-1.88568 -4.35711,-2.34659 -8.85928,-2.08348 l -5.78105,0.33787 -0.33699,9.04401 c -0.18535,4.97418 -0.073,9.73247 0.24973,10.57394 0.37976,0.98965 2.56395,1.52997 6.18449,1.52997 3.93178,0 6.49361,-0.70501 8.60936,-2.36923 z"
         id="path9057" /></g></g></svg>
